<mxfile host="app.diagrams.net" agent="Mozilla/5.0 (Windows NT 10.0; Win64; x64) AppleWebKit/537.36 (KHTML, like Gecko) Chrome/130.0.0.0 Safari/537.36" version="24.8.4">
  <diagram name="Page-1" id="aRFRJHavZbkpxWhnFKwL">
    <mxGraphModel dx="1050" dy="1007" grid="0" gridSize="10" guides="1" tooltips="1" connect="1" arrows="1" fold="1" page="0" pageScale="1" pageWidth="850" pageHeight="1100" math="0" shadow="0">
      <root>
        <mxCell id="0" />
        <mxCell id="1" parent="0" />
        <mxCell id="7uCttW3PF-WiQX1K8yNY-10" value="" style="edgeStyle=none;curved=1;rounded=0;orthogonalLoop=1;jettySize=auto;html=1;fontSize=12;startSize=8;endSize=8;flowAnimation=1;" edge="1" parent="1" source="7uCttW3PF-WiQX1K8yNY-1" target="7uCttW3PF-WiQX1K8yNY-9">
          <mxGeometry relative="1" as="geometry" />
        </mxCell>
        <mxCell id="7uCttW3PF-WiQX1K8yNY-1" value="" style="sketch=0;aspect=fixed;pointerEvents=1;shadow=0;dashed=0;html=1;strokeColor=none;labelPosition=center;verticalLabelPosition=bottom;verticalAlign=top;align=center;fillColor=#00188D;shape=mxgraph.azure.laptop" vertex="1" parent="1">
          <mxGeometry x="33" y="109" width="270" height="162" as="geometry" />
        </mxCell>
        <mxCell id="7uCttW3PF-WiQX1K8yNY-6" value="" style="edgeStyle=none;curved=1;rounded=0;orthogonalLoop=1;jettySize=auto;html=1;fontSize=12;startSize=8;endSize=8;flowAnimation=1;" edge="1" parent="1" source="7uCttW3PF-WiQX1K8yNY-2" target="7uCttW3PF-WiQX1K8yNY-5">
          <mxGeometry relative="1" as="geometry" />
        </mxCell>
        <mxCell id="7uCttW3PF-WiQX1K8yNY-2" value="" style="shape=image;verticalLabelPosition=bottom;labelBackgroundColor=default;verticalAlign=top;aspect=fixed;imageAspect=0;image=data:image/png,iVBORw0KGgoAAAANSUhEUgAAAHUAAAB/CAYAAADRn43aAAAAAXNSR0IArs4c6QAAAARnQU1BAACxjwv8YQUAAAAJcEhZcwAAEnQAABJ0Ad5mH3gAADW6SURBVHhe7X0JoF1Vee63533mO2eeCAkyxARQHBBEQRSwgrRUqdhCX9XWaiu1WhXFYNW2T33VZ588tFpRqfIcqqjMUxEFIxAgCAkBMockdzz3jHt+37/OOTc3NzeY5A6GJP+96+x99tl77bX/b/3Tmra2cNGxCY7SYUV6c3uUDiM6CuphSNrNN9+SvOxlpyKXyzUPHSWhJBnPKmkIohAwNe4lSLwQeqIjsGz4tQCbh308UzewydPhRT5mmAaOb3Pxkg4NGVRRsx2YiGHGMaIICGMdjmFBM7ivNSTMlvsyJRoPjCFtnGPjkVar1Y7a1P0kYoEgCGFbMbQkglf1YTkpPLizF194aB1uHSBkxTSyXUsQdbnIORG6ol6syNTxhqWz8fZUgkBz4JkE1wSssAZDJ5T8EhOwiGDqBNrQCd7+4TcuHQX1AEhApYBSOn3AMDFYT/CbjUX83Q/W4rlhgp3NwS3vxIx4GLXZc6HNnQ+tfSbgGSj4GpbOrOOChSbe2FFGu0ZpNTuUVFKuoVH6RWSjmGKbaDC4OVg6Cuo+aDz1G8UJTIPqNohRtnT84OE+fOGHt6O3ezHMYQ2V4jCifADkPGQ3z0bn8iXQFuQw4O9CIWvAj/NIhvqxIm/hHS/pwek8t92xYVFq9TiAofGemi04k/a+/1H1O0GKxOiNoYgq16KdLFLybnx4M/713vW0ny5/qdFOBnCoMzVazfJwFSjQ9oYWFp54Ktp6ZqNSryGlBfDsPAa8CKlwECfPsnBJt41TuhzMLui0pz6iUIemE2XsfX9jP8X3KKijSKRzRBqaqpY8ptr1YRtkclBHxWjDv9y2Dtfe/STqqXzjNM3itQQxZkp4RPKhNOsEeM7yE+D0dEGnUwXdGJE/alh1v52ZKl4CA+/Pd+KPFhKQNh9Fqm/D6IJVH0ZYr0MrdMOnnW2LyyyQzXwkAXXm4Y4jvEdBHUUtlSvAUtOSgXXoZkLpiSl0GWyoJPjqrb/G91fvwpA7E6HvwbQ0hKEAStApyQ1Q6UgJhvSMZ684AXZPJ4x6A9Sx1F7XUbUSbHNKmGtV8Y4ZHTivx8H8Dh+xUVDZZkAb7g0iSs8AlTsphsVkSCF1Sx0ZTUdBbZIA2pJUSSUyLKd7ZGYJgdmG9XUL1/z4Idy+fgdCtxuR5iIpDcLSY3q0Is57gqozRtEpjrMIqtXdAZMqdzxQ6ykDRsTQhhUm4PWDaR95O8ClbRYuO9bGMQ5VOe9Vt+iEsTiRw/tRNdPyQvdjJJbTzKlRGdX2KKi7AR0NqoQY9UoJdiaDR/tifPnWNbht/fMYNqj6iI9NgBza0Yhxa9VI7wUqEaJSNUYk1aSkJuOASj2tNiZh0ukkRUTD0xjihAGOQx/OmefglQvbMKfNwCyf58r5DINCuEqbGBrvSWqVW6WjoO4NqpBO1Rq4KTxRBD753ftx3+YyfDtNvALkUy5Cz0O1UoWZzpLBpLGgUjI1hihzTz4JzgzaR0qVADaWDNui58vfmFfg+zDSjGFtE36Y0Kmi+iU885KtOLUnxB8sm4eTciY6A58euI+648DlrXSJdUmyPQpqi8jA0NBouWirYg1WRE4xbrxrQwX/+LPHsbrPh5NNoVypKM80jgLl55L7xLEJooivBLKyLwAzT5HUuSefCGdmNyyCTOHdiyzGpQHvWzdpIxkm2bxOCyMekZN1OlQmQsmXnm9OG8aZXTYunOfi5K4EGbOOpJKCz5jINC0YvESuOwoqKahLy5ABz6+TeSlUyZJf7yzj2ptX4f5em+rVhUZHxUlZqEdj3E3hnmDKD5G4hNKacGuwcsjfnOUCakNSxwP1QCgXp1E0B9FmF3FWm4vzu2biVd0xqjYlXYsJOk1DrKvmxiOSRqtcz6WtC6tw6MXGpo7bNg/hIz95Avdt9QgVnRKd3qftUM1K/Lh/xJyZt+w0kJT7TJSKZpXq1kW11IWbtuXwV+sj/OXqzfhlL4OnOuNl6vc6y3rEgxpTqjQCV6oH8FIF3PCrDfjU9+/CukEe7ZwLnxIA2lHLpR0dzyjug1qANsBtpIlSJnTRS/W+LaOjnrbg+hF+1LsAH/nvflz54EbcXo3ocdtHpvptMXmE2VEZRacN3/rNNnztjsexw3dRk9Yb2jYYrPcSh/I03TRUJdiDhHvjqF+NFUBjnDp3Ob1fsakEIJLQZwI0xHvMoCmw6cRV4zqCtEkAc9AcE7vsGuYbffjs/LlHHqiEUTE8Yo0X8ygBfBB5+OqvnsE/3/UkBq05/N1mgNGHyLCochkH0iGSZsCY4Ys0vzfyadIoUDXlARNYATUUDaA3bWrDUYqaXurBEoMYVHjDkBXNTgyYAZ27wg5kns8iMTrRbxaxJH+EqV8RylrTW9G8OkGIGRPq+Mhd2/HF29cj0GfAINJiQ0MjR6Usrbk8N/RVY34iHZ/NkEeRZCiVpHWsibT6Ko3zrQPSJkh7PFZDKC1xAFQnXOJROyyjlD0yIqRLPYiyaXhp+gSWgWdr7pEB6ggD+W8RxCEjgG44KJVtfOKm+/Gd+7Zjlz4HtVQHGRXCM6qUiTFq9hClQDROs3JI5ZLmjSMGVLGFUcTQJRpAm6/h8ZqFP7/pIXzzIR7PeLRLNUT1QXKGai1JqwrQqgy7K0WDeYcSiRmR2FRKZhBUk5X2sAdVgdHcyl5AR+OZXhMfueE+3LZ+EFVkGNdHVLFVBu8eXDIloa1KpA2uBWQrHYIkzZkMiRvEMupUMEeU+k3oja7abuDPfnQvnhpwUfDpcLg7UKvPZG2fgUTPoO5XELnSvtq8+FAnNfRFtW8ph4066fDxfgW0lsMi+3WpsQZtTOArqatpDp7YNIArb3sST2weRJzuVKGKSSkVn3a/iPnuRXKo6f2q0WRUh2qf4ZC4NXOWnwS7pxuGRyVp7N14ofypSabDRlJHPFCSgGrHIaLiAJlbQ1W38bO1DNC/fRd+u2UXYlu6qxh7agHP9RoXHUZ0WKpfJbUENZ3NoGrlcMf6fnz2pw/g8bgTUboNcOgISTuvTht0GHLgsARVPN3QsNAbOvjeY71431d/jo1+CkgRzJD6jipSc2yqXgsB1eLhRocdqA2HKEHRj/DdB57A1d/7BYrdyxHBglXto9svrTHS4kNbKkNMHEruYUYjjlKIIXpQMjJOupmkMUyDR/+4bkncQwegVkaWdl4zdLoBGWXDRjsmo23adJJIpT6soz8PmHoNhUoZw6luXPmzdbjp0V56sx59FhkfxOcwDFXWidJIHs2ttPEqB0k6yVkecZSSJGB4YWL+smWwenqQ+CznuKMBG6HWZNKIpJphG4yQgEq5HA01M6DvVkbeH4bp+9DsHGpWgV5kVp0/GsTpBnQ0MLJfb6vDqpdQqDvY4edx9U8fwo9//SSCgM9ARpq2LYVELA3z00gtrgjMkw3cC9EIqK2b6mANY6xGT4Nxm8PANkVAmWSohF9FSkaT/56kcjySstTCPuRZxl5Px0dv/Q2uu+MpROYMNXZX8Nd5jirzNBZbQhX6YYqk6XekgWAaaET9+vIRVGATzFri4smdPp4uhtg6XIX0IR8/I40VXUCXw/BWz4+MixH6fapfJbWBh8cGDFx1yyrczZAlpc1GMsyQxq6rZjQ12YhBupRxtJQfLI3k0dyOp371iFoiMTH7pcugzehBFMRwpUNgL5p89TsCqlcLYVlAxTTxo6cG8X9+uRnPlgOJ5mAlBtqiMs4/fgbeeeZSnJwKFYMEWHlASfs7enyiJPdSHdu8vySRxid3xbjy+/fgV0Mm0rRj0qpSoyNkUTRV26jUN5XEU5g47Q+oRkiNJ6AuXwbMbICaUs3tY2kKQN1VG0zsyIITlLFDK+C61UP4xsPrsCvpYO1mIWIG51TDGmtehhDPL9h4/6ntuOzYHMwogZ92UY985CPaLUMeiOfTmfLVoMeJAR2H4lyQYYKEMJApiFiR4iLzryJyZuLR5zysvOnXWL1rGIGehunR/lO1+LxOC2XCIYnXK9bxfyIaZQRMUku1CsXSVBcHKukymt9M4A36cNwcZq5YDps2vdZmIRUwpBqXRmU2CaQNUVKdqIqtgYZvP7AT//HEILbJiDmqYOmz06iOG4xotC+a/D7XDvH2k+bjL5fn0R4NIM4UyGxN9efJYFQ5P4xiWOZuFX1QpJ6VH7KVMlAafHLTrJehmxn8eM1O/Mstj2Bd1VYaRaHXJJaaEjrB+49DAqzcRYGqUoKIjqTMgsvmMqgNDyAJa4hNAsjK3nHi8Vg+8wRsDCuwpqmlQ6sVa8nGIMQ/rdqE2x/dhR3IQctaSKoeAbTpLKnTFE8V0/gQoQBOcC9dUMHKsxZjtu0itsp80qxiprRwytSTCQqqGmmgSSUxG1MLRI3qyQA8apHbVhfx2Z88gPWUzqpXg2nSy5VJn1I+erlqONEkM7El5Wpkg/TiNHtybNOGJ2q/WoORotZjOIPSDrz21UtQX7QUm57iM7S1U+FNT5Oktvn5WvLBX23G95/axkC8GyBAiIo09IxVE4uMFJgaDyMPFdOVk4eyjTq8UMep7S4++ur5OHcmJTMt0/ACPmAAzTLhYF/qZv+I8JB5vDcT9xCYGlJV4JtPbMfHfv4QBqMCnNhGbHiqnKOpIUTyOXk0LqhSPP7R3abzYVDFltBh+vjQycfioj9cgU+t3o5fPZdDnGM5/ekJqYxHlpy58uatvJnJ+FPGjXrkmu6rQcRqEpc4AE1STKKvLhYzkEFZTgE7PA13PrUBKcax3R1ZtDv0+ihhnp6hJ91gwsFSlNTplkcsB2u6Y2KQTPm3X/bjX350D4puJ4FLkHJp1ymZohRjMlnhyPtO8Nb7pBH1y08BWZlT3l0nX7LeAF7emeCad74Bf3TaQpjVIn7Za2LtYAGJUeTFE1Rd+0nGpjf8zUoZAGywsAYLahhkjrQgKZdR1FejNkqsJfwiqxs/WZ1woxIdg2GUc7PxwHO7EBHoRYUsOlMyPYGPTcdJ+ZuiilUejRxakr8H8f7CLgFD1R05hUl8NZ3MGI4M3PDLNfjEHU8isdth1OjdGgmqLIOUXJ3cvEZIMX+ykaUGMqRFjf5DYlgwqZVcsigJdOS8Ii566QJ8+K1n4Mx5WZQMn2bWxR3PW9g0ZMAxQ5qtccqjDjX4MllkmOd/YKVIQiKFJdOl1iljKE6GYNrshN2d5DAZRikSZRLJuUGNApXDtlKCR57djs7OLBa2sRbTE5WmsZAMVjVbGC0qa6ytExQVybRABa3cRjlb1PHoj118/rY1+PK9mxDaGfgMHSKZTk87qtFEyBWTTSpHKdaoZLOyBn0DsNsKiKjRbHpLgV/HLHrbf/2GZbjy/GVgUMCAoU7G8ol1C7duKWNTUUdoSUOIPLfkPDq1nn3ySI8JiKXTsI9Ssy9ILFjMECiJ6bwkNsFyVOogyFsJ4h0l4AM/eRjff6JKANNqBjVkIJdWkQnXvGZvFaT8DT6gDLG0NIYFOqsLQyn6Hih5GXz6pofxRUqpH6fIGClngxHxSGWYHvK8CPqsuQgqJWS1UHXAHz+rA59761KCegx6LD4jQzrdTSkt0ZAD9dHIYJpId0XdSoP3gdxYnCUVcEvNE5AMDLp063WbnupcbPC78aH7nsLf3fEQtiQZxo601UOU7AytMU+XxgNJLUdGl9Ye2ZHgnSqt5nmoUb091x/j8htvwQ0Pb0HaXohaxmk2PDQkfXQe00E5rYx4cDvcjrkol0P8wUkzcd3lp+PNJy9AOmKNpWRGTgZFqaBNUOXBmk83baSbDPAjepAy8Hh/SXiqiX1kUiPSVZLeHB8WnQXxAofMAm7cbuBDP3wcd+20US10ohaUKeGeAmI0GMSmIXxUy5Fho07GrB8K8NEbHsRtG0qo8JghK6KEVAMi1k2SGWfybbpYJtMu2qhqnd7f4gPnnYRr/ugVWJb1ENHGhlQrkWaIHwyXGkZvVrzdgO4u91STLlPYdSu337cUMDWd0iLD1hDwOnqelC4nyPCBqvDtAcZjPkTbetFc3NVv4vIf343vr9uOHJ/TCQIlYUK7JVVt4NcpzaztG3pLeO/HPoPbeg1kwg5ySUcpV0GhRlBF/So+8Vq5fvp4Re3RBTOVx1f/4kz805t6MN+tUdmm6DPoKkbWQ1bquA4nZMzeoukVUkVGz9nvXlnWafOEOS190ST1jcdbRxu/jP5GZ4A1UlKkRzxi8nyH0kSUqGZ1r4LEsVBhDX7sue3o81zMm9eNNv5mUtNKZRZZ02RKg1+Bls7jrrVFfPh7D2J1vICxcpUg047xXIOhU0BvUmOo1VQSlAbKAbdSdPVxsIlOophxaeU0pDWNh8QMmGSKJvNnWI4sNcwlxzr49EXL8OrFPYz6QlbGFH01TS2ZI7zTaDJ4AQsmmk+aDQ3cuq2C50oV8oflHlcbSgEml/TN+nMItQJ3LaUyDMYQMjpAaKL2SqdbL4wxjR5sjWfjcw8P4v0/ewRrnifb+MD9egV1aTSohqinHPzX49tw1Tdvx2ObpeWFsV3z/kpdt7bjpAkTPW6DkiYhVyBxOgN0M/apg1x6uVkU6MG/c6GGz//ZGVgxvx1uQkDluka9PuRIR3oB8YzhsLoJqDE9UFGPEoK07MLBkmdnETCoTegBS3DOGAD/vcHGe36+Hl9du4u1PY00GViyHfznfTtw9bfvw5NlMjfHGh9vVZVYgdZAdNR2TJogiaaR0RGaCt8IcBQgNDoIZoSTjU3435ecis++60LIwJd0xPiTZdZZ5km6/aST/pIBqpbqDqpACSMoNTJbi9IlDRETrYQqS6qnSKuy5peQZ9iTs7rwBO3vB+/5LW64byfWDqRw/cMb8KUfP4YNZYJZyLA29CHt1olhg2vqr7VlvuOliZBopoSVWZaSkz4JVyqgN4RXFar40ZVvwiUnZKmCGcPzsKroso6RcId1QOrBoUbaqq3l5Or7t+HWZ4doEwyqSglRpMmNEqvOOPhSu3SKfHqLkUzx010qhBRSsh6QbaBCZ7adtX2e5qF3y3oM1Es8LgtkMP6zyMQaHbCMGCspjUhQYxurEGoMqd6ggy+nLPKYWBocahK/VESbZeHdL3fxzrNeqxoWEpOxM5WxI7Pg6NUJX6Qisb42au44g7Rl2IFEFR/4zQDu2RIislzVMrY3KS5PKmnFSikpFofxrru348FtLoqaDdfuhR/K1LssWUXu8wmkNUhVVYKs+g/H0Hi2bbxmOhEC8WBbp8splgw76X0eAR0Kh/hIi1FMJmuGNDaoCygRjQoXSL+lXCcgqn8BugFq636NrUi3+jpCcm8rtlA3ZMwvn0vEkg5YQfqM0YEisek0B/DFc1+Bi145a8Qrb1Ej9mzc43dRRL7FBPWDDw3i7k28l52iwzceqJNPukWvrC2fx9cYd11+ggG9Moh6eTZSgQUjGFK2VbGIHJI6Fe9vy9MBUEi1F7XnoXcUEFBKYtphKzFVi43YN432Lmac6kcEQ5BSYDUQUwq5CXyrAihV3fh5D5K2krpeZ34EUm+HOWCgndtq3INiUsJZMxLcfPl5OO+V7c2Q7cVJMh5F2ZRu1tb3va4Tf3N6GnO8GuqRi9h1VGew1HDFLu6M1yY9UZI5JlFbnmLCmLRAd4RqOKhS5YWNHh8qcBZUugAbjQ0CpIDW0g7qWGN3XDBbpM436dNSagJKqJPNYdAfYqQ5gCtOnY/r3nkWXjqLWiOkKWpK5dj0YiDllMZUf/W0gw4jxMfO6MbfvzaNvDnE2LHhNKlHkQcStTsFnoF0mYmWlxYZo40hw4xZQC4PX6niWDXsS+vR6C5TAVb9N9BVqSGhjaSOjSHRpjYdQY92sGoFqEQ7MGeWj09cvBBfOn855mc8DKcYbduz+Mx0FV+EgAopq2EyNrWSIpyoHVY5jUte3oGPvaYDxzDOpLVvMEmBytPHW4ptgsS6BMtjvpFJELnJpqHPnAmTACNFb1gWVeRvhnREjwJLgFVlE3TVgcZWAav2xiFqpZiOmh5X8LqZKXz1zWfivacdhyhdpq0N6KHLQhnNc1+kJM1B0owCw0hTDVMlZWx02BauWDYHnzx7EWaFW1TzV0JP1qXzIt6eXiNvQm5lVIQ07vvSBUaJHpNUiDQmSS+L/NQi2Re1HhvMS6kNaWPlOYybo3wnJbcLcBgTRjV6xsNyBc9hYoghA89lcJlUPOnh0Zi3JMlE7hN7FebLGNn0YFc8zIza4GtdsHq34LIlKXzlLy7AabNSqhPeMFOwZKCANJs6IpmqeAdNMo1Roh9EZHHQSZXeEI7pSOPOT5UfpAEiIIB3bYlxzT078GxNQ7W0C65rI6AVimQKoKybRodGD+gpWxS3SSYWg7eIYNQITmkIIbcCqBpYTo3RGnss9UXZetV4wC0RkWcwTKpz2k4xL2BlDWMfL3UTXHb2crztVfPRnlTpkQZ8hIzKa/RY5gkTK5UssXPlr4q4Z0OB/skggabGmQba6ylagMp4Wtcv4/xFKVz1pkU4Hs8jzRCgblMl2uScJapYmhVZVGuvejE5ZMj4IwdGrg1Wx0wg30VtQjUtUkjtEUYeMZa+4IaUynHCKQ+hrISMxIjNHMubp7SUccIcE//6x6fg8tPmIR8MM69QDZN5MdnL/aF9Vk150JKRQcDnfeOsEr7yjqU4NiPtojwQMLRg5ZcObwl0QhXnTQVJS09Cx0ZDaNvQCa7d3gm4tLMiktLjQw9ZgSmpqeLFS5ZZbfwBoT5I4LfhihNm4/9d+Ca84tgZcKhlNFaWSmSjHEsnwZ6OkFTsFzPtBao8nKghGXHvOK6aNeay2i+h2rr+L87AuakdKPAyV3hGOyEd7JEM4J4KinyWh/dIQrW0DGjro84uaO20swQYVpp2lSKp9G9DSluSahI0WZHzGAzjny9YjmsufSUWz6QqN2NYNCGmaSPH58s3Hb8WqALoYQeqUAtYsZ552+FnmvzswLG0SV/+w+U4e0GOHjNR1elYxHQIrIjfJSsypBnL8lMymlDSJD7lttGxIMcY4kjXFj1iM9cOM03VajmUUNrzwKPF4l3FgTN1+PVhLO9O4TN/eC7e95oT0ObUEZoyNlnyldhcpJrXqYrDjJsk+6O/Ty5JZZn6tE/1q0hrGHZTaq6ARYbMzBu46pxZuHRJHujbBE1UoZ+VnlSlKlXG0iiq/if4RymSHAVgXUkUiyt2UraODS1PUNvyaihptrsN9YFBZKTM/UM4f2kXPn/FK3Duy7vpgNLRYmWIwPOVs8K8xDbrrCCU2LEgThWowsbpSC8M6jgUs3YvNGv4zOkz8XevLiDr7SCjybiAtV7lSoZwQ9+UX1kRJjk18k8IFOU4RXvYXoB1wgoUSzVKbwqd1efxPy96Nb5yxdk4mb6VHQ7QlMgYDcbASpsc/nTATynTnuxUAYlTwsrzVuBvT5hPr3hQBBmW6uEhBZQmStR4oEw0SROYyBF3JaRFTGkLall0LX45ujva8Zm/fwf+6k0z0Bn3ohYUKHUdVM8p2HUfObngCKADBlWC+qpH0NI9eGJrBQ8++Bu41b5GMx6lSP6E4ypjMn6ykwwLVcNEBaCAd2EcalKVDpVrCNpn4c5ndmCznoOX7lCdMPSVUPdYNhUKSSaHP/1OUJWEqK0yk7RzATJUv30bS3j3l76NO58fQP+azepFAQk9YZ0nynkqkFdMHM3I1vcJJMakkq904cufLGtu2HSC7AB9jEd/sKaI93xlFdYOyHr0fTQLRYSMoz3HQGWsrWxlO2006jmmMI2A2lJvrX1pgKjLWxW4lVBQRh1GXg0+w5if/LaM91x/D9YPdyKd7obZQUbvfAbawDaYXlm5IvKyneYQ/ibI/JQduYc4VAebVJHFf2UZ6cFGBgGmB04FSxXroW6k8ctaBlfcuAZfX0PVrNHu6+IZ+0hRumW2gMyIU1lJ4k7ruSeVRtUfyX460wtKqm7SgvIMGxWqugqCbB53rS/jMzeuwq82VhCmu9SrIy07B4OxpF8cglccJueo7sRbbTqaMksspp2VV2UptTnJFEYRfImXeR9ZJlV8qafrLj5281r1+q6+kJBKBMbjCV2mRIsQMtX0BBU1fOHwohcEVWZyqzG6rM1VK4vr712Hj3/ndvy2Sg615yiEJQTJMIGt0mYxKxGBUgl+fx/iWpVMZPxqMNgn40Qtqw73KQgXwjhSQ2bU+g7qj0QJ9rrn43OPx7j0hnV4eJfPExmn0gZrNY+pwsoqfsAU1LLfM70gqCY9zRqla9DM4TsPbMQXfvwgNgQZ2A7jOxkSkhShW6KeA/osKZgye1qksTSIsLgDSbUEMwwZtopO0BDTOx7vDb4HRKP1TCtJlpIvk4p4mCx4LMMuVPPzcX+xgCtvfBA/XjeMYenGc9P04mmPWbaJzaA9NOkFQZURBxGD+etuegif+8H96DV7EBhUteUAVi2CTbUbew40eyYZ6ar3B9iUWEcaKsr0iKmKE3mroKhfJUEiFQRhIjQuqJQ+g4/SBJdHqGQNGKaGTOU5VqphrNEX4M/v9fC1ex7GZiqaQN4CRcMfydsUDzPSqtUq/QSqxoY3BI9CKA31jm9iUz3Cv931EK6/fzMq7gzaxBpcsqsqXJPThKGNHejSByrs5L46Kh91quBMFlqhDVG2QNGnlDAMMZsSJe8jVeNlBA3luUwmiX+8J4nPLKu5vXmuiw+fswTLeqhFjGF4URYOTYQawkZfQI17ltH2qpYcLNG+swTS9Xb3c42uN2lSnQ4aee6i6cBLXFglDw45/sxwEZ+76Rf4zn1Pokr1asZlgkBAm+ePJQFJeKDUa3PfdRzE1RqiwSGpPfSIKak6nRQCKY19SsoYksjfdJDcRXd03LTteVz+wzvx06erMCodsKWLTzrbNRl5YailZBuB2YuTRkA19RhmJO8LzePpfgMf/+lj+PrqPgylFsDK5Om9ytxLeo77ampTYEoatS8kLqfPGHZoENrQAFVxQN7RE5YOdjlFQgpxsCadmK9ojT2SdBNS3aZn4dlgJq7++WP47OP9GCjz/jqtbOQz1aBx+2KmEYQyYa96gdy6koaP3/hr/ORRhiaZudSRGuqsxaH0jghQ4g2PQzL8Uhr8FYgqiaMZwUrZ0KRpp1JCPEyJLQ/Tx/JgMx/R9EpNi8RONjFLyXaPJMdZNqMYwK3b2GgU8I+r1+LjP7gPT9P6VEyXpiFERvdZ39TZL0oaATXSUrh/Uwnvu/5O3LZuFzL0EPO1Adheib/Svlgyk8RsDIYfj1qSOWqb2AYrA22tdHPRZhmxj3iQnnHfAPRqXc0ya4Q4zWummgQn3jPO+oyx60j8EKl6J769qw3v+dYq3Pz0AAa1HHwGO9NWpikgvaR5apzOzRvy+NT3HsSa5wepbi1Uqv2oUV0Fap4eHZrQI1N0qq/dqAogKlEli1ui2lelnrS2sh6DTDUQKaeTpBarCkpwo2H4w72QWexJJMNJUnRg6JzQ5ko7LmjbEaRVJ8FBJ1W+8ZN6DmphzTTV8kCuAzzaT6fmu2tw/aohVGIbw9gOtRI7zxsWTyKpifXZfxLVJRuWRULhRHyHsWVkmgrSs76Lnzw9iKu/eQueGADKVEkVGYqZosc62mGQ0sn+ARREOUByvrqW3+lZOhKr1uh0MYYc3vYc3LiKlKi8TJohCJntVRgS1SgrMnJwiqj5DKpo5GydJjROd6DWtgCfv+UhfPKna1HcNRN9dpFw7kK+mILvp1CxWLknmZrcnVTSb6Kj8P6v343nKgZqVg6RcloaKQ4m6DAosSBJdtyXUQxeZNMDLSAdVTE/eh5XnNKO0zp8VMoVRAZFhk6ZJ1Mt1Kof00MO49nEq9HLj1DsPgZff7IfF3z7Pvx2C30qxuPIeaj6ZWR2W6tDmoxbMktX1pIexmUaa2MJprwyK6a9I2MNUZnj1KX9dSJUIz5JqWjZ8rLEpQaoDOPs4zrw8bedgT89fRGWdLrYWYnxzObtjIMYzzLEiBgjTUWT4nhkBmWk0jZ8Gd9M5y4xbQzUfKx6hl46fYl5XTV0ybLkMkv+AIokYd6tWzxsGHSZZ52XjnPxFDyikb7goyurff3Sw02zp8MW54ZhRkgV3HiPyt4A7i+oAooMEJdhpKKCZXSEM7QZbz1lLq76k9fjVcd0wg4rWNiRwbJuC2Uy8tne4Ya9k6dtVoopp1QW9XIVNnkQywiOMEFHuoBtmoN7Nwyi1h/juMUzWSLG8Mpf2JP2Vfl+b6B6Sy9Y6WRkPW5DqV7fZ0016KhQWpSFVzeVj1YiKUxHH9NU47i0oCgniQ5PKgmRR5n+AiVAc5l7jAV5HR99ywr87VtegQXtDjWCvH5SFpDV0MNbrlgwB36phKd30JEqzOHt6+qFe+KlSvuxWquQTpcwZ/TfREmmz7I2834Sy7ISsjL7sgpcQCfSSuGBTQNYvWkXju3OYHbOYRlkxr2Yk8ZIx1g5g+JOSihEh5FhoKglaYhRoA4JqIx/m87TaNo/8TgwMrRTL1wpI5+VdyYFUt6nlKmheHezrvXXosavraRLMx+ZkYiHy0Myk66W2AxpLGSp0pZmq1h52Wtx8cuPUd/V4/EcGYUoD09Woo31aOmcbgx6OlY/uRHZQh51ejGJaSjzICIsL3rf885Cjc+DJdE8rd4akTqpPgbDOPHqBbgw8bG9muChpzcjl8tjcXcaaXrDvow7Jugy69EPaLLIRxn5qLg0AmqdkuowEBAPem9Qp4IM8+S3rAyld0UeTIze70r7oISqChFjADpAYKgQ6S7i1CxY5Z246IQ8PvvOM3HmfEf1jEiII+2r0sojTJSX0Mnz6mRUu2vh2Fl5dKGOR57eiSjtIpI5q4yRU7yHdK+NJfFgJ5uSoNYYKK4nlFaqEctBr9aJhzcPom/7Fpy8eA4sgijVydZkLd80K6qsHcHymaHa3w3qviV1Koh3aTFEtsKw35GkIWEckjUTpDNc1hMyqZL0qI45g6tx1ZuX4fP/42yc1JPC0KAsvrz3iHjZU/04ogeDIo7LJbjq/KX48AWnIl/eCsvkPanS62IaxvmbCkqlLJiOgYCVUDrhI3mZLqOB58MMrl1r4sJrH8CaQY3yHKFOLSfPLjFt41mmB7x9kYGXXbKy8b6U8cEan3YD0iLXpMVjSCI2T+/bgbPmteFf//SVOO/khWiTuTZSg60MVYOhHCcBVcYxqS3zUzmKYybjcGnbEwK4dJaLOTN68Oia9YwXbdjZjOq7HZf2LtKEyCeA6h3iYlZYTouVNU3U/FodSaqAnb6GVY+v434H5rXnWQn4HEkVBrWKH1J5U8J/X5JqJKe9faUtPSdNVSheqjQ4CMMbe3tSsx1BTXhTUxbFBFMlGlpAR8uGS5t3+sJ2fOqyc3DqvIxa0k0NSKOqsgyBj8T7jJbWxsRmaV82mm9TlL5QAyljGHN7Cmhrm4MnntmKfjoxOu1bq+VKFUVsfzOfSSUCIK8Ok7KqTgeqYp8eci6bQlAdYOinY0eYxv1re5EuD2Dxgk44RkUNjbVk1oBwj9feRkdpk4BqCKiirsf+TT4ZxmsvWynLmwqHZC1bcVwiX2LUxuKO6odR1HAeCIJP954VL6DtkWmCYJzZiRLe/8Zl+OjFp+CEdh6XxgSp7eKIcauqyCgwhdS+hC7cClSy8LOqzzwU8BonGMKKLhdL587HIxt3KGAThhwpSrTM4zFZayIZ/zQqz8kgyU3mlCpJVQd4xBKvWMZfNZajNVhuceJW7Sjhqae3Y07HDMzvytL0DBJE8QMM3LLJw/qddO5cT65oZDw6NT4mlYy2Za9f6RlttHUsBMGMRAXKnFAJUaW2qdN2k/JJKKEyNCW0ZGlYE0bJx2n5DD72tuX409d0oseiigzljfZjr+b1ZM7+AmBEFdVzJM7VMZ0OlrYHuG0jPWpZXzgoK2kOyz5tH73LvUo6BaTK3ZCu1l6sB/AcDxt3WFi3rgKXcf6CuTK2kfY/CnD3Dg9PD1mopQLG5JMP4Hik//W5L0PeG4QV+gzVGjaxMb+ElZTSKAMTRidZO1k9luzEATLlfpy3eDY+/bevwoUSrsirTOjvRK7ElA0Ax6b9pzSGkUPo5NUq2OcuyeFnfzwbr26jh23zuDsDqUxeqfdpIyl+8xGkIumRBZTbkLTl8Zju4WM3r8LVt9JDrqRobjIwq9RoHnkrc0Kl3o1NU0DG977xxZU9DKgfeWKD8vBkYarQY/xFkVQxlwDBE1tJtJFIoMtKMCsaxhWnL8XHL3015nXKOoSM7WJKL22KrHJmMAQ5eEB5L+qBkNfIs8sLjyR6nJ3uw3ELFmLtliE8T286lnWVaDamiD970qhnUJ/UWDo9X3nukNUvsgNUtCweebaK5zY8i+4Zs7HOS2EHbWqk3kuw9/MfIEv2i7Tq8GBSYXz5/WcL+Px//BRbPINSlkFcp3qj1zp2CKX0vMlaCgsZP37ikrNx0Yo80vWtlJy5gCODVKSZTUYR0H7QpE6IghB1vaacLwa9ZBjoSHlooybZWYxwzU2P4FvPMTZ225TTNqnE/MbmOAKo/CD3Yw2PZdS6U4fu56DVWLloc+0Uy1kfwkvMXcCiFQj1JagZ1IYtER9FKs9JBlarVCqq7DIt5bY1O/HJ7/4CayX+yrcjqNFjU645Cy7DPWJXjYK/8DgH777wDLx0josUa2BA22FbaVXAA5XGAyXp4pQ3/Yt92lxN4XP/vQ43PL4BTmoRPNEwbglenZXA7mTFkg7+PYmCdfCkODUWapIMoBMHinG2zphW535EPyCmgzhz3gKkC+SlICe/kz+tjo5xcpoUUo6mkBOU8OYTZ+Dav7kYZx2TR7CN0kdHKEm10X62A2UPWXMIb3zNDHzoitfh5EUpZK06FSJDjHFaeaaKLKrb2PQQOGV6myHee85SXHTKIiS1YdSdNnhaASmNZfV7m1dMA41CR3YnVHEmgdQQUbXDv4iOkbi9T/Z6+Nadq7F68wD6huqUxjSWzCng9afNwtmvWIxZLLq0GskEYAZzqptMby7mMdWSKtrdN6VlqQpHhlwmDgboiX/xVkrskxG2lzRksjq88hBiad4bQ5MuqfwqEsqclSSqJLGz//uT1JEld2SBcGGBKXGnxKoM8IdqJobKEWwWbkaBGk0W/4+ZTH7hMWULWkySIHM6iI6vl27czpTGJbl/dScqmRz+fVUv/tfN27DLpOqV/k9v1LLnTZoKUEXlqoHqVMOqqVNcPO8QAFXCE7mLT42slClDCFscFNrUgH+y3q0tL4ukpxQb8uIcen4yxojnaUymnlfZTDUliUcVa8KmNyzLTrDeSVFZtgH4ZNiND+v49N0bsZ1aZLzXRU8FqIbSWDI5S6S0CWr9UAB1HJK1lBqtSrtJ1Kt6Ud4hRGWvBkfwo3MSWTnc+cgWfOYX2/HoANCZDdGfyIxyA/nadhTT3eRm85GbW23UYLoXJGKhmv+a17W2ykmSXZqkhDxDHNJZoiCEMeYsOQ5WJsuQhpUwZDRBQAXYqaQXfBr1Pm/pdRmVpuvltwdCjiOTs2xYpqXAPX35PPzDG47FaXNM9NczjC8qqnWqmJmvhqVK/6ck6XDaR6fTi5p+ZxVthSmj06FGUiI1FJUVTgs9ZKiiLzwxjy+/7RQsSdeRZXgWy0iOakl1RIxNhxv9TlB3T1nYrXYONRLV14iqaBYIrE2kZALysnwN1192PI5LUz3HCdq1IWXHxqbDjfbTmOymQxFYJXF8kpBekIwt8vhYPm1oTHW8ojPGf77zeJzd5dGudSKU85opaqbDjX7nI70Y1C91iNLBYu6lz1bePCzLGtClg2amMd+JcM1bT8TblzAOJ+jSvWfEwzyhAtOV9wSoyxU1pHdP7dRKql9VJZ4jjeCiHWScdOP2jTwaGexuSmwm9TZKOcRrZNHqPRJ/P9g0Hh0W9VS9T0a2o5J0R0twJu9xjXUbi7sz+NBbXop3LaFD1T9MCe0hh7PcH1BMUCAoGp9RLVJqXk5pbZn2AFP2hYTh8r15XCVFYypK49BBp9F5tdJhqHwapNagkNEL9NilacCr19CdtvGZN8zC+15/EqyyLE5C0dabc3bkmhazXuR02IKKRFOv2FYvtpbQTJcFNFmLnRjvPasNV70ujbZgA2qGOwLoiMS+iIClYO6VDl9QSfL+tpDbWiALd0ljQIjQyqAbdfzVa+bi05eswOJ8f0NSm2kE2BcJHVHqN6IDIj6dSTWcshxkUmk6UiaydKQ020XeSuHik+bh06+fhVkZmdoYQ61zLLPJ6WiJpBNeldQAO2lZ43a30RxNex/cXS/426i8xibJUp28P0mI25FrZBPL0p6yiC4TfQeJAA5bUOWF+cI2adBsjOnnozLMkdEciS5rTgB5fl5w4iysPGculmRDeF5M6bah1aUfltdIQzErhyT1EggeVcQdlSN/UhLe/EGkRHFbDjQ9KpnGEUszpDSOyBDRcZK8UHi/EvORrVSS1vdAzyHFitiBknpPuqyWyjOOTGqFZiKdbzsxjS9ftAgruqmqtQzcpEr8CY5CTWbCSyWQmQTqkr1otOpTEiRpCoh3UOVWk7y5le8FyBxaHUW7G2ZYwSULykcmqK14WwCVVNdsnLFAx3V/chJO7ADKSQ6yICOVshp4LucooJQk7osaaI5I6xSQ6J5WxZGtfNftFAajNHaWE7xsXh5XnhQd2ZLaSrIqn4zyOMEdwtcuPRZnL8yr97radKxMgisv9pV34qk3bYxDDSmVHfVNDsjOpJNULpFO6T2T+8j3/qE6zu3ox7UvL+ILb2xHT8fsF+56O2LI24yiOQ+ZqAazNoTNmI2Lv70Wu4p1lCo1+DSPBp2t2DIQNV1jNatA4Uc2S1ePsr2B9FfyVzpd8nqVKMGcY0+AkaLk00mb6OA4Gecc+PTixcbTZ7AtC994UxrHpEJ02PTzNQc6w7ijoDapIW2NJH3IQ9UYn79zB677TR+SnHjH0ume5m8hlZ60DpKJ4gyZFjRfFo0QhJvHpH9VQihuG6BmpVawIkiAtSfJaH8BSWZHqHfWyuQygidk8HsoA9hSLgSlVNVD3jFwUjtw8RITr5ubIE1Pfiwdsep3PBJVLCRqrTtdxXsvXIBLV8xFdsCFU8gh1IbIdFmxVGytCUtCH0/G1EyEZIpLzDxljhCtgOlSyi21nqdGEDOuhSqB7S+XcUoP8H/f4OD61w7jzfPq8NLZPSpjKx2V1FEkDGlt9YqOWroPg0Ye37jFw5d++SQqqQSuTqnxeF5IO0sQEgIcyYTog5RUqSTSdh1FDKd0gxJrUTrriCXsMjtRiKo4o30Ib31pnt45wXYc9fIuR5w4v4RYxouNoaOg7otqVLFOER62wtNPxL/fO4Rr73gIu0QwM13EKIWoViFQPkGlujxIUEWtywqomUxKgVkqM96k05a2Qry5K8C7TpuPJW3MVoaQJR4sgiqrpcvLlyzaaeqKvegoqPugAGUEURZGEMOxBhjmpHDdKh9fu28jtpRoXzNUx9VhtUh1JA0CBwmqvAmyWqsSrFhN+rLsBK85phuXLzCwfIaBXFxCYiasWBZSIe0v1b7kYlCSBWRjnGkQR0HdBwVjJjcLQI4W4pZHt+Dq23fhCb8LsHlOdYAc5r6EMjJuWgtgsUokoa7Uave8OXC7ujBM0AuaibpCRGxxBWnNRyopoy90EGVn4I2LDFy5ZCdeUqgzh9nqvqPJore7P3QU1H1QIxbcTQJqTOlL3DTuWB/gsz+8H48OJTALXbBKQ5B3CMj6/XVKTiLSY1WIs4GeGXPRlu1Uk89qdIhyTGka4yHa5YHIVcsmnDPLw0ULPCzOx/CcDsiSZIUx9xfa30F/R0HdBykvsukNy76AmtCRqQ4XkWGI8UhvjH/4r8fxwGZKp5NFJqF9pU2sRQxN3DYk1V4Y+U7MmLtILd4Z1zy052JsrVnoK0c4sVDDO5alcNHiDGZlZCFPqu3WlEyqan409g+CjoK6nySgRgTZSihHlSEEbjseGLDxxZ8/jFueJQvFY6adi+vDsLWImjkFZ+5c2DO7Ie95dcMain4BJ8+28JYlLs6Zn2ChU4ItA8FlmpzhYlSXwYRizaOg7oPGSqokihL9IJk1a6pG9YAA95Y9/PNtz+CHj/VjIOmUvj4U9DqswhyaWnl5YIwUK8GyjjQuXmrhtPlpLMlKEBoiZLgkqlbk0gyqjdDGSKmRMvtnPceno6AeAMmCJYKtDJURvKXjPaJ0bqKqvPfpIfzo8T48tCPBcJQG0lm0hYM4Y56NP1jWg+XzHBwXEGy1YDIvZgbS5ytTQxptui3p5J66ycHLqvbBv//QUVD3kxrSKnjslmA1jVNsIUMOL9ZR4a4sPCpuTpqnFUwJWwQohjji9ZKk00xyoPxz2wB4MklbuOjYo6AeZjQRe3yUDkkC/j/BLka/nb7rbAAAAABJRU5ErkJggg==;" vertex="1" parent="1">
          <mxGeometry x="74.31" y="121.99999999999999" width="46.62" height="50.6" as="geometry" />
        </mxCell>
        <mxCell id="7uCttW3PF-WiQX1K8yNY-3" value="" style="verticalLabelPosition=bottom;html=1;verticalAlign=top;align=center;strokeColor=none;fillColor=#00BEF2;shape=mxgraph.azure.github_code;pointerEvents=1;" vertex="1" parent="1">
          <mxGeometry x="72.62" y="-12" width="50" height="50" as="geometry" />
        </mxCell>
        <mxCell id="7uCttW3PF-WiQX1K8yNY-4" style="edgeStyle=none;curved=1;rounded=0;orthogonalLoop=1;jettySize=auto;html=1;entryX=0.5;entryY=1;entryDx=0;entryDy=0;entryPerimeter=0;fontSize=12;startSize=8;endSize=8;flowAnimation=1;" edge="1" parent="1" source="7uCttW3PF-WiQX1K8yNY-2" target="7uCttW3PF-WiQX1K8yNY-3">
          <mxGeometry relative="1" as="geometry" />
        </mxCell>
        <mxCell id="7uCttW3PF-WiQX1K8yNY-8" value="" style="edgeStyle=none;curved=1;rounded=0;orthogonalLoop=1;jettySize=auto;html=1;fontSize=12;startSize=8;endSize=8;flowAnimation=1;" edge="1" parent="1" source="7uCttW3PF-WiQX1K8yNY-5" target="7uCttW3PF-WiQX1K8yNY-7">
          <mxGeometry relative="1" as="geometry" />
        </mxCell>
        <mxCell id="7uCttW3PF-WiQX1K8yNY-5" value="terraform" style="whiteSpace=wrap;html=1;verticalAlign=top;labelBackgroundColor=default;fillColor=#d5e8d4;strokeColor=#82b366;" vertex="1" parent="1">
          <mxGeometry x="193" y="122" width="60" height="54" as="geometry" />
        </mxCell>
        <mxCell id="7uCttW3PF-WiQX1K8yNY-7" value="aws cli" style="ellipse;whiteSpace=wrap;html=1;verticalAlign=top;labelBackgroundColor=default;fillColor=#e1d5e7;strokeColor=#9673a6;" vertex="1" parent="1">
          <mxGeometry x="182" y="212" width="82" height="23" as="geometry" />
        </mxCell>
        <mxCell id="7uCttW3PF-WiQX1K8yNY-9" value="aws account" style="whiteSpace=wrap;html=1;aspect=fixed;fillColor=#fff2cc;strokeColor=#d6b656;" vertex="1" parent="1">
          <mxGeometry x="443" y="109" width="157" height="157" as="geometry" />
        </mxCell>
      </root>
    </mxGraphModel>
  </diagram>
</mxfile>
